#!OML:ASF G:\JayActor3\Patient Classification 1\Patient 1\Session 2\male.ASF
:FULLY-SPECIFIED
:DEGREES
1250
root 44.885 16.1727 -6.64031 1261.76 -211.442 542.592
lowerback 1.37136 4.17284 -1.78404
upperback 5.60084 5.72933 -1.69743
thorax 5.02839 2.83897 -0.588022
lowerneck -11.7682 -2.2116 -1.14199
upperneck 30.9987 -5.04421 8.19035
head 12.463 -1.18528 2.65592
rclavicle 3.43401e-014 -2.04748e-014
rhumerus -19.2135 36.6074 -96.2376
rradius 46.1302
rwrist 1.18746
rhand -10.1188 10.4632
rfingers 7.12502
rthumb 15.8692 -18.9065
lclavicle 3.43401e-014 -2.04748e-014
lhumerus -21.0403 -22.3245 83.9194
lradius 57.3214
lwrist 54.3529
lhand 17.9328 23.5338
lfingers 7.12502
lthumb 42.6047 47.9179
rfemur -22.5129 19.0994 21.5825
rtibia 55.1988
rfoot -5.43749 21.0436
rtoes 39.5593
lfemur -21.7704 -15.6715 -8.98149
ltibia 26.1545
lfoot -11.2987 -22.1494
ltoes -1.90361
1251
root 45.0017 16.1633 -6.67597 1261.97 -209.602 542.408
lowerback 1.44004 4.08094 -1.60959
upperback 5.56596 5.59687 -1.70429
thorax 4.96915 2.78023 -0.70141
lowerneck -11.7964 -2.13647 -1.18672
upperneck 30.6616 -4.94866 8.24498
head 12.3272 -1.16196 2.68458
rclavicle -4.47266e-016 -1.13307e-014
rhumerus -18.9503 35.2352 -95.7085
rradius 45.313
rwrist 1.20417
rhand -10.034 10.4354
rfingers 7.12502
rthumb 15.951 -18.9278
lclavicle -4.47266e-016 -1.13307e-014
lhumerus -21.2954 -19.9319 82.9977
lradius 54.779
lwrist 53.9509
lhand 17.085 23.3775
lfingers 7.12502
lthumb 41.8105 48.0307
rfemur -22.9858 19.6375 21.1162
rtibia 55.3283
rfoot -5.40539 21.7055
rtoes 39.7578
lfemur -21.8854 -16.4347 -8.97183
ltibia 26.8458
lfoot -11.1828 -21.435
ltoes -1.25927
1252
root 45.1157 16.1555 -6.71166 1262.14 -207.804 542.195
lowerback 1.58361 3.97962 -1.46346
upperback 5.53028 5.449 -1.68039
thorax 4.86001 2.71215 -0.773791
lowerneck -11.8175 -2.08932 -1.25854
upperneck 30.321 -4.89454 8.33049
head 12.1939 -1.15587 2.72407
rclavicle -6.03311e-014 2.26615e-014
rhumerus -18.6902 33.8869 -95.177
rradius 44.5045
rwrist 1.02168
rhand -10.1174 10.5279
rfingers 7.12502
rthumb 15.8706 -18.8417
lclavicle -6.03311e-014 2.26615e-014
lhumerus -21.4941 -17.5943 82.1063
lradius 51.9972
lwrist 53.2157
lhand 15.9797 23.1304
lfingers 7.12502
lthumb 40.773 48.1185
rfemur -23.4382 20.1552 20.6956
rtibia 55.4171
rfoot -5.42034 22.2948
rtoes 39.8895
lfemur -22.085 -16.8195 -8.9779
ltibia 27.6547
lfoot -11.3495 -20.4092
ltoes -1.29151
1253
root 45.2244 16.1491 -6.74765 1262.29 -206.051 541.964
lowerback 1.82061 3.87102 -1.37507
upperback 5.49527 5.28904 -1.62992
thorax 4.69028 2.63529 -0.793952
lowerneck -11.8407 -2.07315 -1.34544
upperneck 29.9801 -4.88564 8.43476
head 12.0658 -1.16867 2.76712
rclavicle 7.60351e-015 -2.18663e-015
rhumerus -18.4201 32.5358 -94.6467
rradius 43.6828
rwrist 0.751612
rhand -10.2905 10.6941
rfingers 7.12502
rthumb 15.7039 -18.6887
lclavicle 7.60351e-015 -2.18663e-015
lhumerus -21.616 -15.3282 81.2309
lradius 48.9608
lwrist 52.1403
lhand 14.5841 22.7658
lfingers 7.12502
lthumb 39.46 48.1525
rfemur -23.8583 20.6316 20.3336
rtibia 55.4792
rfoot -5.52569 22.7772
rtoes 39.908
lfemur -22.3342 -16.74 -9.02025
ltibia 28.5201
lfoot -11.6021 -19.2888
ltoes -1.75065
1254
root 45.3256 16.1432 -6.78504 1262.39 -204.357 541.725
lowerback 2.16199 3.75099 -1.35345
upperback 5.4758 5.11222 -1.56229
thorax 4.47036 2.54721 -0.766001
lowerneck -11.8733 -2.08465 -1.44481
upperneck 29.6337 -4.92041 8.56789
head 11.9427 -1.19828 2.81718
rclavicle 1.1937e-013 -2.40529e-014
rhumerus -18.1093 31.1507 -94.1195
rradius 42.8252
rwrist 0.527808
rhand -10.5195 10.8919
rfingers 7.12502
rthumb 15.4833 -18.508
lclavicle 1.1937e-013 -2.40529e-014
lhumerus -21.6426 -13.1396 80.3456
lradius 45.6784
lwrist 50.7196
lhand 12.8591 22.2716
lfingers 7.12502
lthumb 37.8328 48.1161
rfemur -24.2191 21.0438 20.0501
rtibia 55.5231
rfoot -5.74122 23.1179
rtoes 39.8099
lfemur -22.5834 -16.2222 -9.09431
ltibia 29.3834
lfoot -11.7341 -18.282
ltoes -2.19138
1255
root 45.4201 16.1384 -6.82358 1262.46 -202.699 541.474
lowerback 2.57064 3.62185 -1.3778
upperback 5.46806 4.92243 -1.4913
thorax 4.22131 2.45094 -0.711993
lowerneck -11.916 -2.11731 -1.5555
upperneck 29.2948 -4.99121 8.73321
head 11.8296 -1.2405 2.87671
rclavicle -6.21202e-014 1.72943e-014
rhumerus -17.7525 29.7323 -93.6187
rradius 41.9227
rwrist 0.430643
rhand -10.738 11.0607
rfingers 7.12502
rthumb 15.2729 -18.3555
lclavicle -6.21202e-014 1.72943e-014
lhumerus -21.5916 -11.0207 79.4273
lradius 42.1799
lwrist 48.956
lhand 10.7542 21.66
lfingers 7.12502
lthumb 35.8413 48.0154
rfemur -24.5303 21.3713 19.8571
rtibia 55.5478
rfoot -6.06306 23.2935
rtoes 39.5813
lfemur -22.7957 -15.3341 -9.17957
ltibia 30.195
lfoot -11.7599 -17.4858
ltoes -2.59706
1256
root 45.5106 16.1357 -6.86225 1262.54 -201.035 541.22
lowerback 2.98594 3.48922 -1.42492
upperback 5.46847 4.72878 -1.4346
thorax 3.97764 2.3521 -0.658005
lowerneck -11.9642 -2.16417 -1.67589
upperneck 28.9818 -5.09027 8.93368
head 11.7324 -1.29096 2.94819
rclavicle 3.26504e-014 -1.11319e-014
rhumerus -17.3592 28.2789 -93.1657
rradius 40.9701
rwrist 0.510236
rhand -10.9546 11.2526
rfingers 7.12502
rthumb 15.0643 -18.1793
lclavicle 3.26504e-014 -1.11319e-014
lhumerus -21.4992 -8.95591 78.463
lradius 38.514
lwrist 46.8205
lhand 8.24514 20.9506
lfingers 7.12502
lthumb 33.4601 47.8526
rfemur -24.8024 21.6045 19.7337
rtibia 55.5513
rfoot -6.50374 23.2738
rtoes 39.1621
lfemur -22.9438 -14.1699 -9.27859
ltibia 30.9182
lfoot -11.7302 -16.8979
ltoes -2.7518
1257
root 45.6006 16.1369 -6.89908 1262.64 -199.326 540.98
lowerback 3.3345 3.35675 -1.48531
upperback 5.47213 4.53788 -1.40377
thorax 3.77727 2.25426 -0.616427
lowerneck -12.0047 -2.21535 -1.80323
upperneck 28.7007 -5.20202 9.1614
head 11.6491 -1.34362 3.03042
rclavicle 9.93923e-016 -5.56597e-015
rhumerus -16.944 26.819 -92.7716
rradius 39.9888
rwrist 0.78183
rhand -11.0981 11.4307
rfingers 7.12502
rthumb 14.926 -18.0115
lclavicle 9.93923e-016 -5.56597e-015
lhumerus -21.4115 -6.90567 77.4447
lradius 34.7478
lwrist 44.3075
lhand 5.33162 20.2203
lfingers 7.12502
lthumb 30.6862 47.6811
rfemur -25.0553 21.7352 19.6501
rtibia 55.5306
rfoot -7.09992 23.0029
rtoes 38.4424
lfemur -23.0176 -12.8606 -9.40016
ltibia 31.5256
lfoot -11.7308 -16.3713
ltoes -2.72286
1258
root 45.6929 16.1437 -6.93199 1262.8 -197.528 540.769
lowerback 3.55268 3.23552 -1.55696
upperback 5.47244 4.36604 -1.4054
thorax 3.64932 2.16549 -0.592049
lowerneck -12.0361 -2.27324 -1.94258
upperneck 28.4587 -5.32588 9.40372
head 11.5819 -1.40024 3.11979
rclavicle 8.5378e-014 -1.51076e-014
rhumerus -16.5207 25.3665 -92.4379
rradius 38.99
rwrist 1.23631
rhand -11.1953 11.6003
rfingers 7.12502
rthumb 14.8323 -17.8489
lclavicle 8.5378e-014 -1.51076e-014
lhumerus -21.3642 -4.84025 76.3789
lradius 30.9397
lwrist 41.3692
lhand 2.08518 19.5417
lfingers 7.12502
lthumb 27.5861 47.5399
rfemur -25.3162 21.7608 19.5715
rtibia 55.4895
rfoot -7.84139 22.4584
rtoes 37.4383
lfemur -23.018 -11.5154 -9.55957
ltibia 32
lfoot -11.8273 -15.7435
ltoes -2.70088
1259
root 45.7892 16.1569 -6.95942 1263.04 -195.631 540.604
lowerback 3.60566 3.12776 -1.65049
upperback 5.47035 4.21729 -1.44025
thorax 3.61316 2.08724 -0.578809
lowerneck -12.0729 -2.34298 -2.09247
upperneck 28.2527 -5.46612 9.64644
head 11.5322 -1.46408 3.20999
rclavicle 9.83984e-015 0
rhumerus -16.0907 23.9459 -92.1511
rradius 37.9926
rwrist 1.82664
rhand -11.246 11.7395
rfingers 7.12502
rthumb 14.7835 -17.7133
lclavicle 9.83984e-015 0
lhumerus -21.3757 -2.69197 75.2613
lradius 27.1435
lwrist 37.9154
lhand -1.3376 18.9859
lfingers 7.12502
lthumb 24.3086 47.4646
rfemur -25.596 21.6635 19.4721
rtibia 55.4388
rfoot -8.76388 21.5898
rtoes 36.0473
lfemur -22.9504 -10.2047 -9.77939
ltibia 32.3346
lfoot -12.0159 -14.9495
ltoes -2.6696
1260
root 45.8895 16.1757 -6.98118 1263.35 -193.641 540.489
lowerback 3.51522 3.03639 -1.76607
upperback 5.46483 4.09528 -1.507
thorax 3.65518 2.02145 -0.577729
lowerneck -12.1126 -2.432 -2.2578
upperneck 28.069 -5.63039 9.88612
head 11.4948 -1.54002 3.29912
rclavicle -1.88845e-015 2.54444e-014
rhumerus -15.6643 22.5789 -91.9022
rradius 37.0151
rwrist 2.48803
rhand -11.2807 11.8737
rfingers 7.12502
rthumb 14.7501 -17.5815
lclavicle -1.88845e-015 2.54444e-014
lhumerus -21.4631 -0.393481 74.0718
lradius 23.4097
lwrist 33.8223
lhand -4.71994 18.607
lfingers 7.12502
lthumb 21.0625 47.4831
rfemur -25.8891 21.4222 19.3574
rtibia 55.3979
rfoot -9.89043 20.3459
rtoes 34.1894
lfemur -22.8174 -8.97911 -10.0661
ltibia 32.5406
lfoot -12.2666 -13.9885
ltoes -2.54122
1261
root 45.9932 16.1988 -6.9974 1263.71 -191.57 540.417
lowerback 3.31255 2.96165 -1.89547
upperback 5.44487 3.99985 -1.60511
thorax 3.74685 1.96854 -0.595673
lowerneck -12.153 -2.54583 -2.42871
upperneck 27.8999 -5.82686 10.1169
head 11.4667 -1.63164 3.38188
rclavicle -1.41137e-014 1.15295e-014
rhumerus -15.261 21.2684 -91.7028
rradius 36.0619
rwrist 3.15249
rhand -11.3135 12.0139
rfingers 7.12502
rthumb 14.7184 -17.4436
lclavicle -1.41137e-014 1.15295e-014
lhumerus -21.6561 2.14611 72.7607
lradius 19.7866
lwrist 28.9232
lhand -7.83246 18.425
lfingers 7.12502
lthumb 18.07 47.6056
rfemur -26.1937 21.0178 19.2479
rtibia 55.3836
rfoot -11.2259 18.6722
rtoes 31.8271
lfemur -22.637 -7.86131 -10.4109
ltibia 32.6401
lfoot -12.5708 -12.8774
ltoes -2.33173
1262
root 46.0985 16.2232 -7.01015 1264.07 -189.463 540.376
lowerback 3.07338 2.88708 -2.02824
upperback 5.41107 3.90723 -1.73391
thorax 3.84684 1.91749 -0.642244
lowerneck -12.1854 -2.68288 -2.60347
upperneck 27.7266 -6.05405 10.3457
head 11.439 -1.73818 3.46012
rclavicle 2.36554e-014 -9.54166e-015
rhumerus -14.8895 20.0407 -91.5591
rradius 35.1477
rwrist 3.76746
rhand -11.3682 12.1194
rfingers 7.12502
rthumb 14.6658 -17.3419
lclavicle 2.36554e-014 -9.54166e-015
lhumerus -21.9981 5.09421 71.2276
lradius 16.3389
lwrist 22.9962
lhand -10.4588 18.4325
lfingers 7.12502
lthumb 15.5418 47.828
rfemur -26.4713 20.4773 19.187
rtibia 55.4112
rfoot -12.7443 16.4813
rtoes 29.0538
lfemur -22.417 -6.83783 -10.8012
ltibia 32.6655
lfoot -12.9158 -11.6777
ltoes -2.12096
1263
root 46.2046 16.247 -7.02028 1264.42 -187.339 540.345
lowerback 2.85333 2.81037 -2.14622
upperback 5.35915 3.81216 -1.88517
thorax 3.91986 1.86661 -0.722304
lowerneck -12.1963 -2.83886 -2.78677
upperneck 27.533 -6.3058 10.5824
head 11.403 -1.85713 3.53875
rclavicle -5.96354e-014 1.43125e-014
rhumerus -14.5702 18.9257 -91.4711
rradius 34.2861
rwrist 4.27941
rhand -11.4183 12.167
rfingers 7.12502
rthumb 14.6175 -17.2979
lclavicle -5.96354e-014 1.43125e-014
lhumerus -22.5746 8.66394 69.3354
lradius 13.1584
lwrist 15.8013
lhand -12.4056 18.6122
lfingers 7.12502
lthumb 13.6661 48.1435
rfemur -26.6962 19.7882 19.2239
rtibia 55.4785
rfoot -14.4009 13.7075
rtoes 25.8424
lfemur -22.1595 -5.8728 -11.2149
ltibia 32.6473
lfoot -13.2981 -10.4359
ltoes -2.04818
